<svg xmlns="http://www.w3.org/2000/svg" viewBox="0 0 297.5 297.5"><path fill="#911716" d="M204.85 205.93h72.6v24.74h-72.6zM20.05 205.93h72.6v24.74h-72.6zM66.25 113.03h72.6v24.74h-72.6zM112.45 159.4h72.6v24.74h-72.6z"/><path fill="#DE6051" d="M112.45 205.93h72.6v24.74h-72.6z"/><path fill="#911716" d="M204.85 159.4h72.6v24.74h-72.6z"/><path fill="#DE6051" d="M20.05 159.4h72.6v24.74h-72.6zM112.45 66.83h72.6v24.74h-72.6zM158.65 113.03h72.6v24.74h-72.6z"/><path d="M297.25 149.5v91.07c0 5.47-4.43 9.9-9.9 9.9H10.15c-5.46 0-9.9-4.43-9.9-9.9V149.5c0-5.46 4.44-9.9 9.9-9.9h36.3v-36.47c0-5.47 4.44-9.9 9.9-9.9h36.3v-36.3c0-5.47 4.44-9.9 9.9-9.9h92.4c5.47 0 9.9 4.43 9.9 9.9v36.3h36.3c5.47 0 9.9 4.43 9.9 9.9v36.47h36.3c5.47 0 9.9 4.44 9.9 9.9zm-19.8 81.17v-24.74h-72.6v24.74h72.6zm0-46.53V159.4h-72.6v24.74h72.6zm-46.2-46.37v-24.74h-72.6v24.74h72.6zm-46.2 92.9v-24.74h-72.6v24.74h72.6zm0-46.53V159.4h-72.6v24.74h72.6zm0-92.57V66.83h-72.6v24.74h72.6zm-46.2 46.2v-24.74h-72.6v24.74h72.6zm-46.2 92.9v-24.74h-72.6v24.74h72.6zm0-46.53V159.4h-72.6v24.74h72.6z"/></svg>