<svg xmlns="http://www.w3.org/2000/svg" viewBox="0 0 49.94 49.94"><path d="M48.856 22.73c.983-.958 1.33-2.364.906-3.67-.425-1.308-1.532-2.24-2.892-2.44l-12.092-1.756c-.515-.075-.96-.398-1.19-.865L28.182 3.042c-.607-1.23-1.84-1.996-3.212-1.996s-2.604.765-3.21 1.996L16.35 14c-.23.467-.676.79-1.19.865L3.068 16.622C1.71 16.82.6 17.752.176 19.06c-.424 1.307-.077 2.713.906 3.67l8.75 8.53c.372.363.543.887.455 1.4L8.224 44.7c-.183 1.06.095 2.092.78 2.905 1.067 1.267 2.928 1.653 4.416.87l10.814-5.685c.452-.237 1.02-.235 1.472 0l10.815 5.686c.527.277 1.088.417 1.667.417 1.057 0 2.06-.47 2.748-1.288.687-.813.964-1.846.78-2.904l-2.064-12.04c-.087-.514.084-1.037.457-1.4l8.75-8.53z"/></svg>